<svg xmlns="http://www.w3.org/2000/svg" width="512" height="352.002" viewBox="0 0 512 352.002">
  <g id="buffet" transform="translate(0 -79.999)">
    <path id="Path_1" data-name="Path 1" d="M504,368H8a8,8,0,0,0,0,16H18.233l14.177,42.53A8,8,0,0,0,40,432H472a8,8,0,0,0,7.59-5.47L493.767,384H504a8,8,0,0,0,0-16Z" fill="#fff"/>
    <path id="Path_2" data-name="Path 2" d="M425.71,198.291c-96.278-96.228-254.6-93.849-347.45,8.44A239.342,239.342,0,0,0,16.766,348.776a3,3,0,0,0,3,3.225H492.249a3,3,0,0,0,3-3.224A238.257,238.257,0,0,0,425.71,198.291Z" fill="#fff"/>
    <path id="Path_3" data-name="Path 3" d="M286.036,113.743A1.754,1.754,0,0,0,288,112a31.836,31.836,0,0,0-9.38-22.63C258.485,69.269,224,83.676,224,112a1.754,1.754,0,0,0,1.964,1.742A260.39,260.39,0,0,1,286.036,113.743Z" fill="#fff"/>
  </g>
</svg>
