<svg xmlns="http://www.w3.org/2000/svg" width="310.476" height="511.999" viewBox="0 0 310.476 511.999">
  <g id="can" transform="translate(-100.761)">
    <g id="Group_2" data-name="Group 2">
      <g id="Group_1" data-name="Group 1">
        <path id="Path_1" data-name="Path 1" d="M141.2,482.94l7.766,13.784A30.045,30.045,0,0,0,175.1,512H336.9a30.046,30.046,0,0,0,26.14-15.276L370.8,482.94Z" fill="#fff"/>
      </g>
    </g>
    <g id="Group_4" data-name="Group 4">
      <g id="Group_3" data-name="Group 3">
        <path id="Path_2" data-name="Path 2" d="M100.761,113.019V426.933a44.745,44.745,0,0,0,8.31,26.008H402.927a44.745,44.745,0,0,0,8.31-26.008V113.019ZM256,357.081A78.021,78.021,0,1,1,334.02,279.06,78.109,78.109,0,0,1,256,357.081Z" fill="#fff"/>
      </g>
    </g>
    <g id="Group_7" data-name="Group 7">
      <g id="Group_6" data-name="Group 6">
        <g id="Group_5" data-name="Group 5">
          <path id="Path_3" data-name="Path 3" d="M373.3,15a15,15,0,0,0-15-15H153.7a14.989,14.989,0,0,0-7.642,27.89L110.031,83.018H401.966L365.941,27.89A14.978,14.978,0,0,0,373.3,15Z" fill="#fff"/>
          <path id="Path_4" data-name="Path 4" d="M401.967,83.018Z" fill="#fff"/>
        </g>
      </g>
    </g>
  </g>
</svg>
