<svg id="chef" xmlns="http://www.w3.org/2000/svg" width="469.334" height="469.333" viewBox="0 0 469.334 469.333">
  <g id="Group_4" data-name="Group 4">
    <g id="Group_3" data-name="Group 3">
      <path id="Path_4" data-name="Path 4" d="M394.667,384H74.75a10.673,10.673,0,0,0-10.667,10.656l-.042,31.1a43.531,43.531,0,0,0,43.521,43.573h254.25a43.567,43.567,0,0,0,43.521-43.521V394.666A10.66,10.66,0,0,0,394.667,384Z" fill="#fff"/>
      <path id="Path_5" data-name="Path 5" d="M352,42.667a110.577,110.577,0,0,0-20.344,1.979A127.9,127.9,0,0,0,106.667,128a10.667,10.667,0,0,1-21.334,0,147.329,147.329,0,0,1,15.792-66.406A10.669,10.669,0,0,0,89,46.469,117.042,117.042,0,0,0,64.25,264.562l-.115,87.427A10.652,10.652,0,0,0,74.8,362.666H394.667A10.661,10.661,0,0,0,405.334,352V264.405A117.267,117.267,0,0,0,352,42.667ZM156.1,296.25a10.686,10.686,0,0,1-15.02-1.479c-3.521-4.3-34.417-42.76-34.417-70.771A10.667,10.667,0,0,1,128,224c0,15.438,18.146,43.292,29.583,57.229A10.687,10.687,0,0,1,156.1,296.25ZM245.333,288A10.666,10.666,0,1,1,224,288V224a10.667,10.667,0,0,1,21.334,0v64Zm82.917,6.771a10.669,10.669,0,0,1-16.5-13.531c11.438-13.969,29.583-41.854,29.583-57.24a10.667,10.667,0,1,1,21.334,0C362.667,252.01,331.771,290.469,328.25,294.771Z" fill="#fff"/>
    </g>
  </g>
</svg>
