<svg xmlns="http://www.w3.org/2000/svg" width="512" height="341.334" viewBox="0 0 512 341.334">
  <g id="table" transform="translate(0 -85.333)">
    <g id="Group_2" data-name="Group 2">
      <g id="Group_1" data-name="Group 1">
        <path id="Path_1" data-name="Path 1" d="M480,85.333a32.035,32.035,0,0,0-32,32V256H373.333a32,32,0,0,0,0,64h53.333v85.333h-32a10.667,10.667,0,0,0,0,21.334H480a10.667,10.667,0,0,0,0-21.334H448V320h32a32.035,32.035,0,0,0,32-32V117.333A32.035,32.035,0,0,0,480,85.333Z" fill="#fff"/>
        <path id="Path_2" data-name="Path 2" d="M138.667,256H64V117.333a32,32,0,1,0-64,0V288a32.035,32.035,0,0,0,32,32H64v85.333H32a10.667,10.667,0,1,0,0,21.334h85.333a10.667,10.667,0,1,0,0-21.334h-32V320h53.333a32,32,0,0,0,0-64Z" fill="#fff"/>
        <path id="Path_3" data-name="Path 3" d="M284.99,243.75c9.333,5.74,19.917,12.25,40.281,12.25s30.948-6.51,40.281-12.25c8.26-5.073,14.781-9.083,29.115-9.083A10.661,10.661,0,0,0,405.334,224V192a42.709,42.709,0,0,0-42.667-42.667H149.333A42.709,42.709,0,0,0,106.666,192v32a10.661,10.661,0,0,0,10.667,10.667c14.292,0,20.792,4.01,29.031,9.083,9.323,5.74,19.885,12.25,40.229,12.25s30.906-6.51,40.229-12.25c5.865-3.611,10.964-6.611,18.51-8.082V405.333H202.665a10.667,10.667,0,1,0,0,21.334H309.332a10.667,10.667,0,0,0,0-21.334H266.665V235.727C274.094,237.216,279.173,240.178,284.99,243.75Z" fill="#fff"/>
      </g>
    </g>
  </g>
</svg>
